Coordinates
nRows=135
nColumns=2
inDegrees=yes
endheader
time	ankle_angle_r	
2.86272	 -0.198614	
2.93429	 -0.283727	
3.00586	 -0.350637	
3.07742	 -0.325040	
3.14899	 -0.303942	
3.22056	 -0.396111	
3.29213	 -0.419403	
3.3637	 -0.347465	
3.43526	 -0.329908	
3.50683	 -0.359169	
3.5784	 -0.348340	
3.64997	 -0.274264	
3.72154	 -0.300558	
3.7931	 -0.399569	
3.86467	 -0.380274	
3.93624	 -0.327463	
4.00781	 -0.352361	
4.07938	 -0.390811	
4.15094	 -0.355739	
4.22251	 -0.315753	
4.29408	 -0.347523	
4.36565	 -0.372608	
4.43722	 -0.328500	
4.50878	 -0.291252	
4.58035	 -0.336136	
4.65192	 -0.343512	
4.72349	 -0.283528	
4.79506	 -0.272835	
4.86662	 -0.324650	
4.93819	 -0.323892	
5.00976	 -0.200994	
5.08133	 -0.181943	
5.1529	 -0.287064	
5.22446	 -0.292219	
5.29603	 -0.283182	
5.3676	 -0.360598	
5.43917	 -0.418567	
5.51074	 -0.352367	
5.5823	 -0.262906	
5.65387	 -0.290358	
5.72544	 -0.372567	
5.79701	 -0.358025	
5.86858	 -0.284343	
5.94014	 -0.342474	
6.01171	 -0.372038	
6.08328	 -0.268654	
6.15485	 -0.269568	
6.22642	 -0.345795	
6.29798	 -0.321408	
6.36955	 -0.225497	
6.44112	 -0.224401	
6.51269	 -0.293884	
6.58426	 -0.289447	
6.65582	 -0.248973	
6.72739	 -0.273861	
6.79896	 -0.359289	
6.87053	 -0.357018	
6.9421	 -0.310490	
7.01366	 -0.333270	
7.08523	 -0.351989	
7.1568	 -0.346422	
7.22837	 -0.334651	
7.29994	 -0.378238	
7.3715	 -0.423910	
7.44307	 -0.350272	
7.51464	 -0.253865	
7.58621	 -0.269612	
7.65778	 -0.315271	
7.72934	 -0.259498	
7.80091	 -0.240189	
7.87248	 -0.305158	
7.94405	 -0.313364	
8.01562	 -0.279843	
8.08718	 -0.296246	
8.15875	 -0.344015	
8.23032	 -0.302055	
8.30189	 -0.242112	
8.37346	 -0.275033	
8.44502	 -0.329787	
8.51659	 -0.308699	
8.58816	 -0.243779	
8.65973	 -0.287021	
8.7313	 -0.339499	
8.80286	 -0.290624	
8.87443	 -0.263627	
8.946	 -0.306274	
9.01757	 -0.307826	
9.08914	 -0.206690	
9.1607	 -0.188292	
9.23227	 -0.277208	
9.30384	 -0.299614	
9.37541	 -0.258297	
9.44698	 -0.275376	
9.51854	 -0.364942	
9.59011	 -0.356366	
9.66168	 -0.293106	
9.73325	 -0.319881	
9.80482	 -0.356273	
9.87638	 -0.329661	
9.94795	 -0.304301	
10.0195	 -0.354133	
10.0911	 -0.386501	
10.1627	 -0.364071	
10.2342	 -0.342964	
10.3058	 -0.343826	
10.3774	 -0.356287	
10.4489	 -0.288762	
10.5205	 -0.242858	
10.5921	 -0.289424	
10.6636	 -0.294625	
10.7352	 -0.257904	
10.8068	 -0.266198	
10.8783	 -0.333568	
10.9499	 -0.327805	
11.0215	 -0.255298	
11.093	 -0.271073	
11.1646	 -0.342143	
11.2362	 -0.345294	
11.3077	 -0.299883	
11.3793	 -0.346804	
11.4509	 -0.397318	
11.5224	 -0.311514	
11.594	 -0.265896	
11.6656	 -0.368693	
11.7372	 -0.400534	
11.8087	 -0.295520	
11.8803	 -0.273895	
11.9519	 -0.315609	
12.0234	 -0.293349	
12.095	 -0.262258	
12.1666	 -0.292409	
12.2381	 -0.336501	
12.3097	 -0.275960	
12.3813	 -0.209573	
12.4528	 -0.289707	
